<?xml version="1.0"?>
<svg width="120" height="44" xmlns="http://www.w3.org/2000/svg" xmlns:svg="http://www.w3.org/2000/svg">
 <defs>
  <linearGradient id="paint0_linear_638_1116" x1="1.11" x2="0.36" y1="1.42" y2="0.49">
   <stop stop-color="#FF1653"/>
   <stop offset="1" stop-color="#FF7A53"/>
  </linearGradient>
  <linearGradient id="paint1_linear_638_1116" x1="0.82" x2="0.08" y1="0.95" y2="-0.6">
   <stop stop-color="#FF1653"/>
   <stop offset="1" stop-color="#FF7A53"/>
  </linearGradient>
  <linearGradient id="paint2_linear_638_1116" x1="0.35" x2="-0.66" y1="0.54" y2="-1.58">
   <stop stop-color="#FF1653"/>
   <stop offset="1" stop-color="#FF7A53"/>
  </linearGradient>
  <linearGradient id="paint3_linear_638_1116" x1="0.53" x2="-0.13" y1="0.51" y2="-0.55">
   <stop stop-color="#FF1653"/>
   <stop offset="1" stop-color="#FF7A53"/>
  </linearGradient>
  <linearGradient id="paint4_linear_638_1116" x1="3.58" x2="0.74" y1="6.11" y2="0.72">
   <stop stop-color="#FF1653"/>
   <stop offset="1" stop-color="#FF7A53"/>
  </linearGradient>
  <linearGradient id="paint5_linear_638_1116" x1="0.9" x2="0.54" y1="1.5" y2="0.55">
   <stop stop-color="#FF1653"/>
   <stop offset="1" stop-color="#FF7A53"/>
  </linearGradient>
  <linearGradient id="paint6_linear_638_1116" x1="3.58" x2="0.74" y1="6.11" y2="0.72">
   <stop stop-color="#FF1653"/>
   <stop offset="1" stop-color="#FF7A53"/>
  </linearGradient>
  <linearGradient id="paint7_linear_638_1116" x1="3.58" x2="0.74" y1="6.11" y2="0.72">
   <stop stop-color="#FF1653"/>
   <stop offset="1" stop-color="#FF7A53"/>
  </linearGradient>
 </defs>
 <g class="layer">
  <title>Layer 1</title>
  <path d="m3.5,31.21c0,0 3.74,-4.14 9.61,-4.08c0,0 -0.3,-2.09 0.4,-3.74c0,0 -6.7,-1.72 -7.01,-9.37c0,0 -7.65,6.45 -3,17.19z" fill="url(#paint0_linear_638_1116)" id="svg_2">Snacks</path>
  <path d="m4.53,32.79c3.12,4.97 8.97,6.54 8.97,6.54l0.01,-0.13c-0.66,-3.69 2.64,-7.68 2.64,-7.68c-1.4,-0.87 -2.32,-2.56 -2.32,-2.56c-0.08,0.01 -0.15,0 -0.22,0c-5.48,0.01 -9.08,3.83 -9.08,3.83z" fill="url(#paint1_linear_638_1116)" id="svg_3">Snacks</path>
  <path d="m15.51,39.76c4.93,0.92 8.43,-1.1 8.43,-1.1c-2.68,-2.23 -2.82,-5.8 -2.82,-5.8c-2.16,0.06 -3.23,-0.47 -3.23,-0.47c-3.23,3.04 -2.38,7.37 -2.38,7.37z" fill="url(#paint2_linear_638_1116)" id="svg_4">Snacks</path>
  <path d="m24.91,32.22l-1.88,0.55c0,0 0,2.72 2.91,4.97c0,0 2.13,-1.41 2.26,-1.65c0,0 7.23,-1.84 7.8,-10.86c0,0 -1.58,0.06 -3.75,1.2l0.86,-3.9c0,0 -7.49,2.29 -8.2,9.69z" fill="url(#paint3_linear_638_1116)" id="svg_5">Snacks</path>
  <path d="m22.61,13.28c0,0.83 -0.68,1.5 -1.52,1.5c-0.85,0 -1.53,-0.67 -1.53,-1.5c0,-0.82 0.68,-1.49 1.53,-1.49c0.84,0 1.52,0.67 1.52,1.49z" fill="url(#paint4_linear_638_1116)" id="svg_6">Snacks</path>
  <path d="m24.98,5.03c-1.18,0.81 -2.47,1.6 -3.83,2.27c-1.37,0.67 -2.78,1.22 -4.17,1.57l-3.02,0.75c-0.69,0.18 -1.41,0.34 -2.1,0.5c-0.73,0.19 -2.32,0.68 -3.46,1.96c0,0 -1.08,5.35 3.76,8.75c0,0 1.87,1.37 5.28,1.05c1.54,-0.14 3.02,-0.6 4.38,-1.33c1.1,-0.61 2.65,-1.55 3.63,-2.55c0.09,-0.11 0.19,-0.2 0.28,-0.3c0.08,-0.06 0.17,-0.15 0.28,-0.27l6.17,-6.34c-0.37,-0.52 -1.12,-0.64 -1.65,-0.27l-3.38,2.33c0.36,-2.27 -1.33,-7.8 -1.33,-7.8c-0.1,-0.29 -0.37,-0.36 -0.58,-0.35c-0.15,0 -0.26,0.03 -0.26,0.03zm-6.88,8.24c-0.01,-1.61 1.34,-2.92 2.99,-2.93c1.64,0.01 2.98,1.32 2.97,2.93c0.01,1.61 -1.33,2.93 -2.98,2.93c-1.63,0 -2.98,-1.31 -2.98,-2.93z" fill="url(#paint5_linear_638_1116)" id="svg_7">Snacks</path>
  <path d="m22.61,13.28c0,0.83 -0.68,1.5 -1.52,1.5c-0.85,0 -1.53,-0.67 -1.53,-1.5c0,-0.82 0.68,-1.49 1.53,-1.49c0.84,0 1.52,0.67 1.52,1.49z" fill="url(#paint6_linear_638_1116)" id="svg_8">Snacks</path>
  <path d="m22.61,13.28c0,0.83 -0.68,1.5 -1.52,1.5c-0.85,0 -1.53,-0.67 -1.53,-1.5c0,-0.82 0.68,-1.49 1.53,-1.49c0.84,0 1.52,0.67 1.52,1.49z" fill="url(#paint7_linear_638_1116)" id="svg_9">Snacks</path>
  <text fill="#ffffff" font-family="Serif" font-size="8" id="svg_14" stroke-width="0" text-anchor="middle" transform="matrix(5.27404 0 0 2.61011 -263.886 -42.3376)" x="64.56" xml:space="preserve" y="23.69">Fruit</text>
  <text fill="#ffffff" font-family="Serif" font-size="8" id="svg_15" stroke-width="0" style="cursor: move;" text-anchor="middle" transform="matrix(2.09377 0 0 1.34995 -145.848 -15.0459)" x="114.43" xml:space="preserve" y="41.21">Snacks</text>
 </g>
</svg>